<svg width="25" height="24" viewBox="0 0 25 24" fill="none" xmlns="http://www.w3.org/2000/svg">
<path d="M12.7999 22.75C12.0199 22.75 11.2599 22.35 10.7399 21.65L9.72993 20.3C9.51993 20.02 9.23993 19.86 8.93993 19.84C8.63993 19.83 8.33993 19.96 8.09993 20.21L7.52993 19.7L8.07993 20.21C6.63993 21.75 5.52993 21.63 4.99993 21.42C4.45993 21.21 3.54993 20.52 3.54993 18.3V7.04C3.54993 2.6 4.82993 1.25 9.01993 1.25H16.5799C20.7699 1.25 22.0499 2.6 22.0499 7.04V18.3C22.0499 20.51 21.1399 21.2 20.5999 21.42C20.0699 21.63 18.9699 21.75 17.5199 20.21C17.2799 19.95 16.9799 19.81 16.6699 19.84C16.3699 19.86 16.0799 20.02 15.8699 20.3L14.8599 21.65C14.3399 22.35 13.5799 22.75 12.7999 22.75ZM8.87993 18.33C8.91993 18.33 8.96993 18.33 9.00993 18.33C9.74993 18.37 10.4499 18.76 10.9199 19.39L11.9299 20.74C12.4199 21.39 13.1699 21.39 13.6599 20.74L14.6699 19.39C15.1499 18.76 15.8399 18.37 16.5899 18.33C17.3299 18.29 18.0699 18.6 18.6099 19.18C19.3699 19.99 19.8599 20.09 20.0399 20.02C20.2799 19.92 20.5399 19.34 20.5399 18.3V7.04C20.5399 3.43 19.9099 2.75 16.5699 2.75H9.01993C5.67993 2.75 5.04993 3.43 5.04993 7.04V18.3C5.04993 19.35 5.30993 19.93 5.54993 20.02C5.71993 20.09 6.21993 19.99 6.97993 19.18C7.51993 18.63 8.18993 18.33 8.87993 18.33Z" fill="#717171"/>
<path d="M17.0299 11.75H11.5299C11.1199 11.75 10.7799 11.41 10.7799 11C10.7799 10.59 11.1199 10.25 11.5299 10.25H17.0299C17.4399 10.25 17.7799 10.59 17.7799 11C17.7799 11.41 17.4399 11.75 17.0299 11.75Z" fill="#717171"/>
<path d="M17.0299 7.75H11.5299C11.1199 7.75 10.7799 7.41 10.7799 7C10.7799 6.59 11.1199 6.25 11.5299 6.25H17.0299C17.4399 6.25 17.7799 6.59 17.7799 7C17.7799 7.41 17.4399 7.75 17.0299 7.75Z" fill="#717171"/>
<path d="M8.57996 8C8.02996 8 7.57996 7.55 7.57996 7C7.57996 6.45 8.02996 6 8.57996 6C9.12996 6 9.57996 6.45 9.57996 7C9.57996 7.55 9.12996 8 8.57996 8Z" fill="#717171"/>
<path d="M8.57996 12C8.02996 12 7.57996 11.55 7.57996 11C7.57996 10.45 8.02996 10 8.57996 10C9.12996 10 9.57996 10.45 9.57996 11C9.57996 11.55 9.12996 12 8.57996 12Z" fill="#717171"/>
</svg>
