<svg viewBox="0 0 24 25" fill="none" xmlns="http://www.w3.org/2000/svg">
<path d="M17.4399 15.8699C17.2499 15.8699 17.0599 15.7999 16.9099 15.6499C16.6199 15.3599 16.6199 14.8799 16.9099 14.5899L18.9399 12.5599L16.9099 10.5299C16.6199 10.2399 16.6199 9.75994 16.9099 9.46994C17.1999 9.17994 17.6799 9.17994 17.9699 9.46994L20.5299 12.0299C20.8199 12.3199 20.8199 12.7999 20.5299 13.0899L17.9699 15.6499C17.8199 15.7999 17.6299 15.8699 17.4399 15.8699Z" fill="#C30000"/>
<path d="M19.9298 13.3101H9.75977C9.34977 13.3101 9.00977 12.9701 9.00977 12.5601C9.00977 12.1501 9.34977 11.8101 9.75977 11.8101H19.9298C20.3398 11.8101 20.6798 12.1501 20.6798 12.5601C20.6798 12.9701 20.3398 13.3101 19.9298 13.3101Z" fill="#C30000"/>
<path d="M11.7598 21.25C6.60977 21.25 3.00977 17.65 3.00977 12.5C3.00977 7.35 6.60977 3.75 11.7598 3.75C12.1698 3.75 12.5098 4.09 12.5098 4.5C12.5098 4.91 12.1698 5.25 11.7598 5.25C7.48977 5.25 4.50977 8.23 4.50977 12.5C4.50977 16.77 7.48977 19.75 11.7598 19.75C12.1698 19.75 12.5098 20.09 12.5098 20.5C12.5098 20.91 12.1698 21.25 11.7598 21.25Z" fill="#C30000"/>
</svg>
