<svg viewBox="0 0 24 25" fill="none" xmlns="http://www.w3.org/2000/svg">
<path d="M8 22.8199C7.72 22.8199 7.42998 22.7499 7.16998 22.6099C6.59998 22.3099 6.25 21.7099 6.25 21.0699V19.65C3.23 19.34 1.25 17.1199 1.25 13.9399V7.93994C1.25 4.49994 3.56 2.18994 7 2.18994H17C20.44 2.18994 22.75 4.49994 22.75 7.93994V13.9399C22.75 17.3799 20.44 19.6899 17 19.6899H13.23L8.96997 22.53C8.67997 22.72 8.34 22.8199 8 22.8199ZM7 3.67993C4.42 3.67993 2.75 5.34993 2.75 7.92993V13.93C2.75 16.51 4.42 18.18 7 18.18C7.41 18.18 7.75 18.52 7.75 18.93V21.06C7.75 21.19 7.83 21.25 7.88 21.28C7.93001 21.31 8.03001 21.34 8.14001 21.27L12.59 18.31C12.71 18.23 12.86 18.18 13.01 18.18H17.01C19.59 18.18 21.26 16.51 21.26 13.93V7.92993C21.26 5.34993 19.59 3.67993 17.01 3.67993H7Z" fill="#353535"/>
<path d="M11.9998 12.6099C11.5898 12.6099 11.2498 12.2699 11.2498 11.8599V11.6499C11.2498 10.4899 12.0998 9.91989 12.4198 9.69989C12.7898 9.44989 12.9098 9.2799 12.9098 9.0199C12.9098 8.5199 12.4998 8.10986 11.9998 8.10986C11.4998 8.10986 11.0898 8.5199 11.0898 9.0199C11.0898 9.4299 10.7498 9.7699 10.3398 9.7699C9.92984 9.7699 9.58984 9.4299 9.58984 9.0199C9.58984 7.6899 10.6698 6.60986 11.9998 6.60986C13.3298 6.60986 14.4098 7.6899 14.4098 9.0199C14.4098 10.1599 13.5698 10.7299 13.2598 10.9399C12.8698 11.1999 12.7498 11.3699 12.7498 11.6499V11.8599C12.7498 12.2799 12.4098 12.6099 11.9998 12.6099Z" fill="#353535"/>
<path d="M12 15.1001C11.58 15.1001 11.25 14.7601 11.25 14.3501C11.25 13.9401 11.59 13.6001 12 13.6001C12.41 13.6001 12.75 13.9401 12.75 14.3501C12.75 14.7601 12.42 15.1001 12 15.1001Z" fill="#353535"/>
</svg>
