<svg viewBox="0 0 13 12" fill="none" xmlns="http://www.w3.org/2000/svg">
<path d="M6.61888 0.77039L7.67207 4.01178C7.72228 4.16629 7.86626 4.2709 8.02872 4.2709H11.4369C11.558 4.2709 11.6084 4.42585 11.5104 4.49703L8.7531 6.50031C8.62167 6.59581 8.56667 6.76507 8.61687 6.91958L9.67006 10.161C9.70748 10.2761 9.57567 10.3719 9.47771 10.3007L6.72042 8.29743C6.58899 8.20194 6.41101 8.20194 6.27958 8.29743L3.52229 10.3007C3.42433 10.3719 3.29252 10.2761 3.32993 10.161L4.38313 6.91958C4.43333 6.76507 4.37833 6.59581 4.2469 6.50031L1.48961 4.49703C1.39164 4.42585 1.44199 4.2709 1.56308 4.2709H4.97128C5.13374 4.2709 5.27772 4.16629 5.32793 4.01178L6.38112 0.77039C6.41854 0.655226 6.58146 0.655226 6.61888 0.77039Z" fill="#F4B740" stroke="#ADADAD" stroke-width="0.25"/>
</svg>
